# Blender v2.79 (sub 0) OBJ File: 'wheel.blend'
# www.blender.org
mtllib wheel.mtl
o Cylinder
v -1.235789 0.245815 0.750000
v -1.164088 0.482183 0.750000
v -1.047651 0.700020 0.750000
v -0.890953 0.890956 0.750000
v -0.700017 1.047653 0.750000
v -0.482179 1.164089 0.750000
v -0.245812 1.235790 0.750000
v -1.471178 0.292637 0.750000
v -1.385819 0.574027 0.750000
v -1.247203 0.833357 0.750000
v -1.060659 1.060662 0.750000
v -0.833354 1.247205 0.750000
v -0.574023 1.385820 0.750000
v -0.292633 1.471178 0.750000
v 0.000000 1.260000 0.750000
v 1.235789 0.245815 0.750000
v 1.164088 0.482183 0.750000
v 1.047651 0.700020 0.750000
v 0.890953 0.890956 0.750000
v 0.700017 1.047653 0.750000
v 0.482179 1.164089 0.750000
v 0.245812 1.235790 0.750000
v 0.000000 1.500000 0.750000
v 1.471178 0.292637 0.750000
v 1.385819 0.574027 0.750000
v 1.247203 0.833357 0.750000
v 1.060659 1.060662 0.750000
v 0.833354 1.247205 0.750000
v 0.574023 1.385820 0.750000
v 0.292633 1.471178 0.750000
v -1.260000 0.000000 0.750000
v -1.235789 -0.245815 0.750000
v -1.164088 -0.482182 0.750000
v -1.047651 -0.700020 0.750000
v -0.890953 -0.890956 0.750000
v -0.700017 -1.047653 0.750000
v -0.482179 -1.164089 0.750000
v -0.245812 -1.235790 0.750000
v -1.500000 0.000000 0.750000
v -1.471178 -0.292637 0.750000
v -1.385819 -0.574027 0.750000
v -1.247203 -0.833357 0.750000
v -1.060659 -1.060662 0.750000
v -0.833354 -1.247205 0.750000
v -0.574023 -1.385820 0.750000
v -0.292633 -1.471178 0.750000
v 0.000000 -1.260000 0.750000
v 1.260000 0.000000 0.750000
v 1.235789 -0.245815 0.750000
v 1.164088 -0.482182 0.750000
v 1.047651 -0.700020 0.750000
v 0.890953 -0.890956 0.750000
v 0.700017 -1.047653 0.750000
v 0.482179 -1.164089 0.750000
v 0.245812 -1.235790 0.750000
v 0.000000 0.000000 0.750000
v 0.000000 -1.500000 0.750000
v 1.500000 0.000000 0.750000
v 1.471178 -0.292637 0.750000
v 1.385819 -0.574027 0.750000
v 1.247203 -0.833357 0.750000
v 1.060659 -1.060662 0.750000
v 0.833354 -1.247205 0.750000
v 0.574023 -1.385820 0.750000
v 0.292633 -1.471178 0.750000
v -1.235789 0.245815 -0.750000
v -1.164088 0.482182 -0.750000
v -1.047651 0.700020 -0.750000
v -0.890953 0.890956 -0.750000
v -0.700017 1.047653 -0.750000
v -0.482179 1.164089 -0.750000
v -0.245812 1.235790 -0.750000
v -1.471178 0.292637 -0.000000
v -1.385819 0.574027 -0.000000
v -1.247203 0.833357 -0.000000
v -1.060659 1.060662 -0.000000
v -0.833354 1.247205 -0.000000
v -0.574023 1.385820 -0.000000
v -0.292633 1.471178 -0.000000
v -1.471178 0.292637 -0.750000
v -1.385819 0.574027 -0.750000
v -1.247203 0.833357 -0.750000
v -1.060659 1.060662 -0.750000
v -0.833354 1.247205 -0.750000
v -0.574023 1.385820 -0.750000
v -0.292633 1.471178 -0.750000
v 0.000000 1.260000 -0.750000
v 1.235789 0.245815 -0.750000
v 1.164088 0.482182 -0.750000
v 1.047651 0.700020 -0.750000
v 0.890953 0.890956 -0.750000
v 0.700017 1.047653 -0.750000
v 0.482179 1.164089 -0.750000
v 0.245812 1.235790 -0.750000
v 0.000000 1.500000 -0.000000
v 1.471178 0.292637 -0.000000
v 1.385819 0.574027 -0.000000
v 1.247203 0.833357 -0.000000
v 1.060659 1.060662 -0.000000
v 0.833354 1.247205 -0.000000
v 0.574023 1.385820 -0.000000
v 0.292633 1.471178 -0.000000
v 0.000000 1.500000 -0.750000
v 1.471178 0.292637 -0.750000
v 1.385819 0.574027 -0.750000
v 1.247203 0.833357 -0.750000
v 1.060659 1.060662 -0.750000
v 0.833354 1.247205 -0.750000
v 0.574023 1.385820 -0.750000
v 0.292633 1.471178 -0.750000
v -1.260000 -0.000000 -0.750000
v -1.235789 -0.245815 -0.750000
v -1.164088 -0.482183 -0.750000
v -1.047651 -0.700020 -0.750000
v -0.890953 -0.890956 -0.750000
v -0.700017 -1.047653 -0.750000
v -0.482179 -1.164089 -0.750000
v -0.245812 -1.235790 -0.750000
v -1.500000 0.000000 0.000000
v -1.471178 -0.292637 0.000000
v -1.385819 -0.574027 0.000000
v -1.247203 -0.833357 0.000000
v -1.060659 -1.060662 0.000000
v -0.833354 -1.247205 0.000000
v -0.574023 -1.385820 0.000000
v -0.292633 -1.471178 0.000000
v -1.500000 -0.000000 -0.750000
v -1.471178 -0.292637 -0.750000
v -1.385819 -0.574027 -0.750000
v -1.247203 -0.833357 -0.750000
v -1.060659 -1.060662 -0.750000
v -0.833354 -1.247205 -0.750000
v -0.574023 -1.385820 -0.750000
v -0.292633 -1.471178 -0.750000
v 0.000000 -1.260000 -0.750000
v 1.260000 -0.000000 -0.750000
v 1.235789 -0.245815 -0.750000
v 1.164088 -0.482183 -0.750000
v 1.047651 -0.700020 -0.750000
v 0.890953 -0.890956 -0.750000
v 0.700017 -1.047653 -0.750000
v 0.482179 -1.164089 -0.750000
v 0.245812 -1.235790 -0.750000
v 0.000000 -0.000000 -0.750000
v 0.000000 -1.500000 0.000000
v 1.500000 0.000000 0.000000
v 1.471178 -0.292637 0.000000
v 1.385819 -0.574027 0.000000
v 1.247203 -0.833357 0.000000
v 1.060659 -1.060662 0.000000
v 0.833354 -1.247205 0.000000
v 0.574023 -1.385820 0.000000
v 0.292633 -1.471178 0.000000
v 0.000000 -1.500000 -0.750000
v 1.500000 -0.000000 -0.750000
v 1.471178 -0.292637 -0.750000
v 1.385819 -0.574027 -0.750000
v 1.247203 -0.833357 -0.750000
v 1.060659 -1.060662 -0.750000
v 0.833354 -1.247205 -0.750000
v 0.574023 -1.385820 -0.750000
v 0.292633 -1.471178 -0.750000
vt 0.620648 0.916756
vt 0.806927 0.973262
vt 0.620648 0.916756
vt 1.000324 0.996171
vt 0.806927 0.973262
vt 1.000000 1.000000
vt 0.175008 0.551028
vt 0.083245 0.379353
vt 1.000000 0.000000
vt 0.298499 0.701503
vt 0.448973 0.824993
vt 0.026738 0.193075
vt 0.000000 0.000000
vt 1.000649 0.992342
vt 0.806927 0.973262
vt 0.620648 0.916756
vt 0.448973 0.824993
vt 0.448973 0.824993
vt 0.298499 0.701503
vt 0.298499 0.701503
vt 0.175008 0.551028
vt 0.175008 0.551028
vt 0.083245 0.379353
vt 0.083245 0.379353
vt 0.026738 0.193074
vt 0.000000 0.000000
vt 0.000000 0.000000
vt 0.026738 0.193075
vt 0.620648 0.916756
vt 0.806927 0.973262
vt 0.806927 0.973262
vt 0.175008 0.551028
vt 0.083245 0.379353
vt 0.298499 0.701503
vt 0.448973 0.824993
vt 0.026738 0.193075
vt 0.000000 0.000000
vt 0.806927 0.973262
vt 0.620648 0.916756
vt 0.620648 0.916756
vt 0.448973 0.824993
vt 0.448973 0.824993
vt 0.298499 0.701503
vt 0.298499 0.701503
vt 0.175008 0.551028
vt 0.175008 0.551028
vt 0.083245 0.379353
vt 0.083245 0.379353
vt 0.026738 0.193074
vt 0.026738 0.193075
vt 0.000000 0.000000
vt 0.000000 0.000000
vt 0.620648 0.916756
vt 0.806927 0.973262
vt 0.806927 0.973262
vt 1.000324 0.996171
vt 1.000000 1.000000
vt 0.175008 0.551028
vt 0.083245 0.379353
vt 0.298499 0.701503
vt 0.448973 0.824993
vt 0.026738 0.193075
vt 1.000649 0.992342
vt 0.806927 0.973262
vt 0.620648 0.916756
vt 0.620648 0.916756
vt 0.448973 0.824993
vt 0.448973 0.824993
vt 0.298499 0.701503
vt 0.298499 0.701503
vt 0.175008 0.551028
vt 0.175008 0.551028
vt 0.083245 0.379353
vt 0.083245 0.379353
vt 0.026738 0.193075
vt 0.026738 0.193074
vt 0.620648 0.916756
vt 0.806927 0.973262
vt 0.620648 0.916756
vt 0.806927 0.973262
vt 0.175008 0.551028
vt 0.083245 0.379353
vt 0.298499 0.701503
vt 0.448973 0.824993
vt 0.026738 0.193075
vt 0.806927 0.973262
vt 0.620648 0.916756
vt 0.448973 0.824993
vt 0.448973 0.824993
vt 0.298499 0.701503
vt 0.175008 0.551028
vt 0.175008 0.551028
vt 0.083245 0.379353
vt 0.083245 0.379353
vt 0.026738 0.193075
vt 0.026738 0.193074
vt 0.298499 0.701503
vt 0.620648 0.916756
vt 0.806927 0.973262
vt 0.806927 0.973262
vt 1.000324 0.996171
vt 1.000000 1.000000
vt 0.175008 0.551028
vt 1.000000 0.000000
vt 0.083245 0.379353
vt 0.298499 0.701503
vt 0.448973 0.824993
vt 0.026738 0.193075
vt 0.000000 0.000000
vt 0.620648 0.916756
vt 0.448973 0.824993
vt 0.298499 0.701503
vt 0.175008 0.551028
vt 0.083245 0.379353
vt 0.026738 0.193075
vt 0.000000 0.000000
vt 0.620648 0.916756
vt 0.806927 0.973262
vt 0.620648 0.916756
vt 0.806927 0.973262
vt 0.175008 0.551028
vt 0.083245 0.379353
vt 0.298499 0.701503
vt 0.448973 0.824993
vt 0.026738 0.193075
vt 0.000000 0.000000
vt 0.448973 0.824993
vt 0.175008 0.551028
vt 0.083245 0.379353
vt 0.026738 0.193075
vt 0.000000 0.000000
vt 0.298499 0.701503
vt 0.620648 0.916756
vt 0.806927 0.973262
vt 0.620648 0.916756
vt 1.000324 0.996171
vt 0.806927 0.973262
vt 1.000000 1.000000
vt 0.175008 0.551028
vt 0.083245 0.379353
vt 0.298499 0.701503
vt 0.448973 0.824993
vt 0.026738 0.193075
vt 0.448973 0.824993
vt 0.298499 0.701503
vt 0.175008 0.551028
vt 0.083245 0.379353
vt 0.026738 0.193075
vt 0.620648 0.916756
vt 0.806927 0.973262
vt 0.806927 0.973262
vt 0.175008 0.551028
vt 0.083245 0.379353
vt 0.298499 0.701503
vt 0.448973 0.824993
vt 0.026738 0.193075
vt 0.620648 0.916756
vt 0.448973 0.824993
vt 0.298499 0.701503
vt 0.175008 0.551028
vt 0.083245 0.379353
vt 0.026738 0.193075
vn -0.0000 0.0000 1.0000
vn -0.0980 0.9952 0.0000
vn -0.2903 0.9569 0.0000
vn -0.4714 0.8819 0.0000
vn -0.6344 0.7730 0.0000
vn -0.7730 0.6344 0.0000
vn -0.8819 0.4714 -0.0000
vn -0.9569 0.2903 -0.0000
vn -0.9952 0.0980 -0.0000
vn 0.0980 0.9952 0.0000
vn 0.2903 0.9569 0.0000
vn 0.4714 0.8819 0.0000
vn 0.6344 0.7730 0.0000
vn 0.7730 0.6344 0.0000
vn 0.8819 0.4714 -0.0000
vn 0.9569 0.2903 0.0000
vn 0.9952 0.0980 -0.0000
vn -0.0980 -0.9952 0.0000
vn -0.2903 -0.9569 0.0000
vn -0.4714 -0.8819 0.0000
vn -0.6344 -0.7730 0.0000
vn -0.7730 -0.6344 0.0000
vn -0.8819 -0.4714 0.0000
vn -0.9569 -0.2903 0.0000
vn -0.9952 -0.0980 0.0000
vn 0.0980 -0.9952 0.0000
vn 0.2903 -0.9569 0.0000
vn 0.4714 -0.8819 0.0000
vn 0.6344 -0.7730 0.0000
vn 0.7730 -0.6344 0.0000
vn 0.8819 -0.4714 0.0000
vn 0.9569 -0.2903 0.0000
vn 0.9952 -0.0980 0.0000
vn 0.0000 -0.0000 -1.0000
usemtl Material
s off
f 6/1/1 14/2/1 13/3/1
f 23/4/1 7/5/1 15/6/1
f 3/7/1 2/8/1 56/9/1
f 15/6/1 7/5/1 56/9/1
f 4/10/1 3/7/1 56/9/1
f 5/11/1 4/10/1 56/9/1
f 1/12/1 31/13/1 56/9/1
f 6/1/1 5/11/1 56/9/1
f 2/8/1 1/12/1 56/9/1
f 7/5/1 6/1/1 56/9/1
f 14/2/2 95/14/2 79/15/2
f 13/3/3 79/15/3 78/16/3
f 12/17/4 78/16/4 77/18/4
f 11/19/5 77/18/5 76/20/5
f 10/21/6 76/20/6 75/22/6
f 9/23/7 75/22/7 74/24/7
f 73/25/8 9/23/8 74/24/8
f 39/26/9 73/25/9 119/27/9
f 6/1/1 12/17/1 5/11/1
f 4/10/1 12/17/1 11/19/1
f 3/7/1 11/19/1 10/21/1
f 2/8/1 10/21/1 9/23/1
f 1/12/1 9/23/1 8/28/1
f 31/13/1 8/28/1 39/26/1
f 21/29/1 30/30/1 22/31/1
f 22/31/1 23/4/1 15/6/1
f 18/32/1 56/9/1 17/33/1
f 15/6/1 56/9/1 22/31/1
f 19/34/1 56/9/1 18/32/1
f 20/35/1 56/9/1 19/34/1
f 16/36/1 56/9/1 48/37/1
f 21/29/1 56/9/1 20/35/1
f 17/33/1 56/9/1 16/36/1
f 22/31/1 56/9/1 21/29/1
f 95/14/10 30/30/10 102/38/10
f 102/38/11 29/39/11 101/40/11
f 101/40/12 28/41/12 100/42/12
f 100/42/13 27/43/13 99/44/13
f 98/45/14 27/43/14 26/46/14
f 98/45/15 25/47/15 97/48/15
f 96/49/16 25/47/16 24/50/16
f 146/51/17 24/50/17 58/52/17
f 21/29/1 28/41/1 29/39/1
f 28/41/1 19/34/1 27/43/1
f 27/43/1 18/32/1 26/46/1
f 26/46/1 17/33/1 25/47/1
f 25/47/1 16/36/1 24/50/1
f 24/50/1 48/37/1 58/52/1
f 37/53/1 46/54/1 38/55/1
f 38/55/1 57/56/1 47/57/1
f 34/58/1 56/9/1 33/59/1
f 47/57/1 56/9/1 38/55/1
f 35/60/1 56/9/1 34/58/1
f 36/61/1 56/9/1 35/60/1
f 32/62/1 56/9/1 31/13/1
f 37/53/1 56/9/1 36/61/1
f 33/59/1 56/9/1 32/62/1
f 38/55/1 56/9/1 37/53/1
f 145/63/18 46/54/18 126/64/18
f 126/64/19 45/65/19 125/66/19
f 125/66/20 44/67/20 124/68/20
f 123/69/21 44/67/21 43/70/21
f 123/69/22 42/71/22 122/72/22
f 122/72/23 41/73/23 121/74/23
f 121/74/24 40/75/24 120/76/24
f 119/27/25 40/75/25 39/26/25
f 37/53/1 44/67/1 45/65/1
f 44/67/1 35/60/1 43/70/1
f 42/71/1 35/60/1 34/58/1
f 42/71/1 33/59/1 41/73/1
f 41/73/1 32/62/1 40/75/1
f 40/75/1 31/13/1 39/26/1
f 54/77/1 65/78/1 64/79/1
f 57/56/1 55/80/1 47/57/1
f 51/81/1 50/82/1 56/9/1
f 47/57/1 55/80/1 56/9/1
f 52/83/1 51/81/1 56/9/1
f 53/84/1 52/83/1 56/9/1
f 49/85/1 48/37/1 56/9/1
f 54/77/1 53/84/1 56/9/1
f 50/82/1 49/85/1 56/9/1
f 55/80/1 54/77/1 56/9/1
f 65/78/26 145/63/26 153/86/26
f 64/79/27 153/86/27 152/87/27
f 63/88/28 152/87/28 151/89/28
f 150/90/29 63/88/29 151/89/29
f 61/91/30 150/90/30 149/92/30
f 60/93/31 149/92/31 148/94/31
f 59/95/32 148/94/32 147/96/32
f 58/52/33 147/96/33 146/51/33
f 54/77/1 63/88/1 53/84/1
f 52/83/1 63/88/1 62/97/1
f 61/91/1 52/83/1 62/97/1
f 50/82/1 61/91/1 60/93/1
f 49/85/1 60/93/1 59/95/1
f 48/37/1 59/95/1 58/52/1
f 71/98/34 86/99/34 72/100/34
f 72/100/34 103/101/34 87/102/34
f 68/103/34 144/104/34 67/105/34
f 87/102/34 144/104/34 72/100/34
f 69/106/34 144/104/34 68/103/34
f 70/107/34 144/104/34 69/106/34
f 66/108/34 144/104/34 111/109/34
f 71/98/34 144/104/34 70/107/34
f 67/105/34 144/104/34 66/108/34
f 72/100/34 144/104/34 71/98/34
f 95/14/2 86/99/2 79/15/2
f 79/15/3 85/110/3 78/16/3
f 78/16/4 84/111/4 77/18/4
f 76/20/5 84/111/5 83/112/5
f 76/20/6 82/113/6 75/22/6
f 75/22/7 81/114/7 74/24/7
f 74/24/8 80/115/8 73/25/8
f 119/27/9 80/115/9 127/116/9
f 71/98/34 84/111/34 85/110/34
f 84/111/34 69/106/34 83/112/34
f 82/113/34 69/106/34 68/103/34
f 82/113/34 67/105/34 81/114/34
f 81/114/34 66/108/34 80/115/34
f 80/115/34 111/109/34 127/116/34
f 93/117/34 110/118/34 109/119/34
f 103/101/34 94/120/34 87/102/34
f 90/121/34 89/122/34 144/104/34
f 87/102/34 94/120/34 144/104/34
f 91/123/34 90/121/34 144/104/34
f 92/124/34 91/123/34 144/104/34
f 88/125/34 136/126/34 144/104/34
f 93/117/34 92/124/34 144/104/34
f 89/122/34 88/125/34 144/104/34
f 94/120/34 93/117/34 144/104/34
f 110/118/10 95/14/10 102/38/10
f 109/119/11 102/38/11 101/40/11
f 108/127/12 101/40/12 100/42/12
f 99/44/13 108/127/13 100/42/13
f 106/128/14 99/44/14 98/45/14
f 105/129/15 98/45/15 97/48/15
f 104/130/16 97/48/16 96/49/16
f 155/131/17 96/49/17 146/51/17
f 93/117/34 108/127/34 92/124/34
f 91/123/34 108/127/34 107/132/34
f 106/128/34 91/123/34 107/132/34
f 89/122/34 106/128/34 105/129/34
f 88/125/34 105/129/34 104/130/34
f 136/126/34 104/130/34 155/131/34
f 117/133/34 134/134/34 133/135/34
f 154/136/34 118/137/34 135/138/34
f 114/139/34 113/140/34 144/104/34
f 135/138/34 118/137/34 144/104/34
f 115/141/34 114/139/34 144/104/34
f 116/142/34 115/141/34 144/104/34
f 112/143/34 111/109/34 144/104/34
f 117/133/34 116/142/34 144/104/34
f 113/140/34 112/143/34 144/104/34
f 118/137/34 117/133/34 144/104/34
f 134/134/18 145/63/18 126/64/18
f 133/135/19 126/64/19 125/66/19
f 132/144/20 125/66/20 124/68/20
f 131/145/21 124/68/21 123/69/21
f 130/146/22 123/69/22 122/72/22
f 129/147/23 122/72/23 121/74/23
f 120/76/24 129/147/24 121/74/24
f 127/116/25 120/76/25 119/27/25
f 117/133/34 132/144/34 116/142/34
f 115/141/34 132/144/34 131/145/34
f 114/139/34 131/145/34 130/146/34
f 113/140/34 130/146/34 129/147/34
f 112/143/34 129/147/34 128/148/34
f 111/109/34 128/148/34 127/116/34
f 142/149/34 162/150/34 143/151/34
f 143/151/34 154/136/34 135/138/34
f 139/152/34 144/104/34 138/153/34
f 135/138/34 144/104/34 143/151/34
f 140/154/34 144/104/34 139/152/34
f 141/155/34 144/104/34 140/154/34
f 137/156/34 144/104/34 136/126/34
f 142/149/34 144/104/34 141/155/34
f 138/153/34 144/104/34 137/156/34
f 143/151/34 144/104/34 142/149/34
f 145/63/26 162/150/26 153/86/26
f 153/86/27 161/157/27 152/87/27
f 152/87/28 160/158/28 151/89/28
f 151/89/29 159/159/29 150/90/29
f 149/92/30 159/159/30 158/160/30
f 149/92/31 157/161/31 148/94/31
f 147/96/32 157/161/32 156/162/32
f 146/51/33 156/162/33 155/131/33
f 142/149/34 160/158/34 161/157/34
f 160/158/34 140/154/34 159/159/34
f 159/159/34 139/152/34 158/160/34
f 158/160/34 138/153/34 157/161/34
f 157/161/34 137/156/34 156/162/34
f 156/162/34 136/126/34 155/131/34
f 6/1/1 7/5/1 14/2/1
f 23/4/1 14/2/1 7/5/1
f 14/2/2 23/4/2 95/14/2
f 13/3/3 14/2/3 79/15/3
f 12/17/4 13/3/4 78/16/4
f 11/19/5 12/17/5 77/18/5
f 10/21/6 11/19/6 76/20/6
f 9/23/7 10/21/7 75/22/7
f 73/25/8 8/28/8 9/23/8
f 39/26/9 8/28/9 73/25/9
f 6/1/1 13/3/1 12/17/1
f 4/10/1 5/11/1 12/17/1
f 3/7/1 4/10/1 11/19/1
f 2/8/1 3/7/1 10/21/1
f 1/12/1 2/8/1 9/23/1
f 31/13/1 1/12/1 8/28/1
f 21/29/1 29/39/1 30/30/1
f 22/31/1 30/30/1 23/4/1
f 95/14/10 23/4/10 30/30/10
f 102/38/11 30/30/11 29/39/11
f 101/40/12 29/39/12 28/41/12
f 100/42/13 28/41/13 27/43/13
f 98/45/14 99/44/14 27/43/14
f 98/45/15 26/46/15 25/47/15
f 96/49/16 97/48/16 25/47/16
f 146/51/17 96/49/17 24/50/17
f 21/29/1 20/35/1 28/41/1
f 28/41/1 20/35/1 19/34/1
f 27/43/1 19/34/1 18/32/1
f 26/46/1 18/32/1 17/33/1
f 25/47/1 17/33/1 16/36/1
f 24/50/1 16/36/1 48/37/1
f 37/53/1 45/65/1 46/54/1
f 38/55/1 46/54/1 57/56/1
f 145/63/18 57/56/18 46/54/18
f 126/64/19 46/54/19 45/65/19
f 125/66/20 45/65/20 44/67/20
f 123/69/21 124/68/21 44/67/21
f 123/69/22 43/70/22 42/71/22
f 122/72/23 42/71/23 41/73/23
f 121/74/24 41/73/24 40/75/24
f 119/27/25 120/76/25 40/75/25
f 37/53/1 36/61/1 44/67/1
f 44/67/1 36/61/1 35/60/1
f 42/71/1 43/70/1 35/60/1
f 42/71/1 34/58/1 33/59/1
f 41/73/1 33/59/1 32/62/1
f 40/75/1 32/62/1 31/13/1
f 54/77/1 55/80/1 65/78/1
f 57/56/1 65/78/1 55/80/1
f 65/78/26 57/56/26 145/63/26
f 64/79/27 65/78/27 153/86/27
f 63/88/28 64/79/28 152/87/28
f 150/90/29 62/97/29 63/88/29
f 61/91/30 62/97/30 150/90/30
f 60/93/31 61/91/31 149/92/31
f 59/95/32 60/93/32 148/94/32
f 58/52/33 59/95/33 147/96/33
f 54/77/1 64/79/1 63/88/1
f 52/83/1 53/84/1 63/88/1
f 61/91/1 51/81/1 52/83/1
f 50/82/1 51/81/1 61/91/1
f 49/85/1 50/82/1 60/93/1
f 48/37/1 49/85/1 59/95/1
f 71/98/34 85/110/34 86/99/34
f 72/100/34 86/99/34 103/101/34
f 95/14/2 103/101/2 86/99/2
f 79/15/3 86/99/3 85/110/3
f 78/16/4 85/110/4 84/111/4
f 76/20/5 77/18/5 84/111/5
f 76/20/6 83/112/6 82/113/6
f 75/22/7 82/113/7 81/114/7
f 74/24/8 81/114/8 80/115/8
f 119/27/9 73/25/9 80/115/9
f 71/98/34 70/107/34 84/111/34
f 84/111/34 70/107/34 69/106/34
f 82/113/34 83/112/34 69/106/34
f 82/113/34 68/103/34 67/105/34
f 81/114/34 67/105/34 66/108/34
f 80/115/34 66/108/34 111/109/34
f 93/117/34 94/120/34 110/118/34
f 103/101/34 110/118/34 94/120/34
f 110/118/10 103/101/10 95/14/10
f 109/119/11 110/118/11 102/38/11
f 108/127/12 109/119/12 101/40/12
f 99/44/13 107/132/13 108/127/13
f 106/128/14 107/132/14 99/44/14
f 105/129/15 106/128/15 98/45/15
f 104/130/16 105/129/16 97/48/16
f 155/131/17 104/130/17 96/49/17
f 93/117/34 109/119/34 108/127/34
f 91/123/34 92/124/34 108/127/34
f 106/128/34 90/121/34 91/123/34
f 89/122/34 90/121/34 106/128/34
f 88/125/34 89/122/34 105/129/34
f 136/126/34 88/125/34 104/130/34
f 117/133/34 118/137/34 134/134/34
f 154/136/34 134/134/34 118/137/34
f 134/134/18 154/136/18 145/63/18
f 133/135/19 134/134/19 126/64/19
f 132/144/20 133/135/20 125/66/20
f 131/145/21 132/144/21 124/68/21
f 130/146/22 131/145/22 123/69/22
f 129/147/23 130/146/23 122/72/23
f 120/76/24 128/148/24 129/147/24
f 127/116/25 128/148/25 120/76/25
f 117/133/34 133/135/34 132/144/34
f 115/141/34 116/142/34 132/144/34
f 114/139/34 115/141/34 131/145/34
f 113/140/34 114/139/34 130/146/34
f 112/143/34 113/140/34 129/147/34
f 111/109/34 112/143/34 128/148/34
f 142/149/34 161/157/34 162/150/34
f 143/151/34 162/150/34 154/136/34
f 145/63/26 154/136/26 162/150/26
f 153/86/27 162/150/27 161/157/27
f 152/87/28 161/157/28 160/158/28
f 151/89/29 160/158/29 159/159/29
f 149/92/30 150/90/30 159/159/30
f 149/92/31 158/160/31 157/161/31
f 147/96/32 148/94/32 157/161/32
f 146/51/33 147/96/33 156/162/33
f 142/149/34 141/155/34 160/158/34
f 160/158/34 141/155/34 140/154/34
f 159/159/34 140/154/34 139/152/34
f 158/160/34 139/152/34 138/153/34
f 157/161/34 138/153/34 137/156/34
f 156/162/34 137/156/34 136/126/34
